<svg id="svg" xmlns="http://www.w3.org/2000/svg" xmlns:xlink="http://www.w3.org/1999/xlink" width="400" height="95.0514945993469" viewBox="0, 0, 400,95.0514945993469"><g id="svgg"><path id="path0" d="M71.500 14.252 C 70.079 14.642,66.329 15.653,63.167 16.499 C 56.548 18.269,55.713 18.555,54.154 19.592 C 51.282 21.501,49.167 25.313,49.167 28.581 C 49.167 29.630,49.659 29.392,44.833 30.675 C 43.046 31.150,40.946 31.713,40.167 31.925 C 39.387 32.137,36.087 33.024,32.833 33.895 C 29.579 34.767,24.779 36.052,22.167 36.752 C 19.554 37.452,16.447 38.284,15.263 38.600 C 12.631 39.303,12.793 39.469,12.892 36.167 C 13.100 29.273,16.778 23.466,22.865 20.418 C 23.715 19.993,24.444 19.612,24.485 19.571 C 24.595 19.461,23.457 19.693,23.167 19.840 C 23.029 19.910,22.627 20.013,22.272 20.069 C 21.918 20.125,21.555 20.216,21.467 20.270 C 21.379 20.325,20.881 20.478,20.362 20.610 C 19.842 20.742,18.967 20.965,18.417 21.105 C 17.867 21.245,17.042 21.448,16.583 21.556 C 16.125 21.663,15.668 21.804,15.567 21.870 C 15.467 21.935,15.055 22.038,14.651 22.100 C 14.247 22.162,13.842 22.268,13.750 22.337 C 13.598 22.451,12.143 22.853,9.860 23.412 C 8.689 23.699,8.613 23.793,8.842 24.682 C 8.945 25.086,9.118 25.792,9.224 26.250 C 9.331 26.708,9.468 27.160,9.529 27.254 C 9.589 27.347,9.688 27.750,9.747 28.148 C 9.807 28.547,9.917 28.995,9.991 29.145 C 10.066 29.294,10.213 29.754,10.317 30.167 C 10.421 30.579,10.536 31.029,10.572 31.167 C 10.609 31.304,10.712 31.717,10.801 32.083 C 10.891 32.450,11.094 33.200,11.252 33.750 C 11.411 34.300,11.626 35.139,11.731 35.614 C 11.836 36.089,11.977 36.533,12.044 36.600 C 12.112 36.667,12.167 36.896,12.167 37.108 C 12.167 37.320,12.354 38.052,12.583 38.734 C 12.812 39.417,13.000 40.089,13.000 40.229 C 13.000 40.452,13.093 40.455,13.792 40.250 C 14.227 40.123,16.683 39.457,19.250 38.770 C 21.817 38.084,26.204 36.908,29.000 36.157 C 49.923 30.540,49.241 30.710,49.358 31.077 C 49.659 32.020,49.611 32.064,47.708 32.567 C 46.723 32.828,44.304 33.476,42.333 34.008 C 40.362 34.540,36.313 35.626,33.333 36.422 C 30.354 37.218,25.892 38.413,23.417 39.078 C 20.942 39.743,17.698 40.611,16.208 41.007 C 13.159 41.817,13.304 41.675,13.833 43.333 C 14.017 43.907,14.167 44.550,14.167 44.762 C 14.167 44.974,14.235 45.189,14.319 45.241 C 14.403 45.293,14.519 45.653,14.578 46.043 C 14.637 46.432,14.746 46.900,14.821 47.083 C 14.895 47.267,15.042 47.754,15.147 48.167 C 15.253 48.579,15.369 49.029,15.406 49.167 C 15.442 49.304,15.550 49.717,15.645 50.083 C 15.740 50.450,15.942 51.200,16.093 51.750 C 16.243 52.300,16.459 53.125,16.571 53.583 C 16.684 54.042,16.820 54.529,16.875 54.667 C 16.929 54.804,17.024 55.217,17.085 55.583 C 17.146 55.950,17.274 56.344,17.369 56.458 C 17.463 56.573,17.504 56.667,17.458 56.667 C 17.413 56.667,17.518 57.173,17.692 57.792 C 17.866 58.410,18.054 59.179,18.110 59.500 C 18.167 59.821,18.269 60.158,18.338 60.250 C 18.406 60.342,18.517 60.754,18.583 61.167 C 18.650 61.579,18.761 61.992,18.831 62.083 C 18.901 62.175,19.009 62.605,19.072 63.038 C 19.135 63.471,19.257 63.869,19.343 63.923 C 19.429 63.976,19.500 64.228,19.500 64.482 C 19.500 64.736,19.556 65.001,19.625 65.069 C 19.694 65.138,19.836 65.544,19.941 65.972 C 20.798 69.465,21.055 70.450,21.165 70.673 C 21.235 70.814,21.347 71.264,21.415 71.673 C 21.482 72.082,21.594 72.492,21.663 72.583 C 21.732 72.675,21.838 73.080,21.900 73.484 C 21.962 73.888,22.064 74.300,22.126 74.401 C 22.189 74.501,22.254 74.658,22.271 74.750 C 22.310 74.958,22.569 75.948,22.926 77.250 C 23.077 77.800,23.287 78.639,23.394 79.114 C 23.501 79.589,23.644 80.033,23.711 80.100 C 23.778 80.167,23.833 80.422,23.833 80.667 C 23.833 81.339,23.846 81.339,26.383 80.667 C 38.487 77.466,42.194 76.421,43.250 75.911 C 47.007 74.100,49.375 70.434,49.588 66.101 L 49.654 64.750 50.702 64.457 C 51.672 64.185,61.703 61.487,65.917 60.364 C 66.925 60.095,70.000 59.271,72.750 58.533 C 87.460 54.584,85.602 54.991,85.753 55.682 C 87.149 62.036,82.703 70.897,76.526 74.072 C 76.220 74.229,75.997 74.386,76.031 74.420 C 76.093 74.482,76.378 74.416,78.250 73.912 C 78.800 73.764,79.587 73.568,80.000 73.477 C 80.412 73.386,80.862 73.266,81.000 73.210 C 81.137 73.155,81.625 73.018,82.083 72.906 C 82.542 72.794,83.779 72.465,84.833 72.174 C 85.888 71.884,87.013 71.585,87.333 71.511 C 87.654 71.437,88.128 71.291,88.386 71.188 C 88.644 71.085,89.028 71.000,89.240 71.000 C 89.891 71.000,90.034 70.654,89.765 69.731 C 89.498 68.814,89.114 67.460,89.087 67.333 C 88.832 66.171,88.773 65.903,88.760 65.833 C 88.752 65.787,88.697 65.674,88.638 65.582 C 88.579 65.490,88.476 65.115,88.410 64.749 C 88.344 64.383,88.230 63.968,88.158 63.828 C 88.086 63.687,87.978 63.237,87.918 62.828 C 87.858 62.418,87.739 62.012,87.654 61.925 C 87.569 61.838,87.500 61.602,87.500 61.401 C 87.500 61.200,87.348 60.521,87.162 59.893 C 86.976 59.264,86.711 58.337,86.573 57.833 C 86.435 57.329,86.252 56.692,86.166 56.417 C 86.080 56.142,85.963 55.617,85.905 55.250 C 85.664 53.719,86.061 53.724,80.641 55.176 C 78.226 55.823,73.625 57.056,70.417 57.916 C 49.125 63.623,49.475 63.531,49.392 63.448 C 48.946 63.001,49.164 62.180,49.772 62.019 C 50.126 61.925,52.517 61.287,55.083 60.601 C 57.650 59.916,60.350 59.196,61.083 59.002 C 61.817 58.808,63.767 58.284,65.417 57.838 C 67.067 57.392,70.704 56.415,73.500 55.668 C 80.400 53.824,84.712 52.663,84.939 52.588 C 85.077 52.542,85.061 52.258,84.881 51.554 C 84.745 51.020,84.541 50.208,84.429 49.750 C 84.316 49.292,84.182 48.804,84.131 48.667 C 83.850 47.914,83.500 46.581,83.500 46.264 C 83.500 46.064,83.431 45.829,83.346 45.742 C 83.261 45.655,83.143 45.256,83.085 44.855 C 83.026 44.455,82.917 44.005,82.842 43.855 C 82.767 43.706,82.621 43.246,82.517 42.833 C 82.412 42.421,82.289 41.933,82.241 41.750 C 82.194 41.567,82.087 41.117,82.003 40.750 C 81.726 39.533,81.462 38.587,81.325 38.312 C 81.250 38.162,81.140 37.712,81.080 37.312 C 81.020 36.911,80.913 36.508,80.842 36.417 C 80.771 36.325,80.662 35.920,80.600 35.516 C 80.538 35.112,80.436 34.700,80.374 34.599 C 80.311 34.499,80.246 34.342,80.229 34.250 C 80.194 34.063,79.978 33.233,79.579 31.750 C 79.431 31.200,79.237 30.412,79.148 30.000 C 79.059 29.587,78.924 29.135,78.847 28.994 C 78.771 28.853,78.653 28.403,78.585 27.994 C 78.518 27.585,78.407 27.175,78.339 27.083 C 78.272 26.992,78.130 26.504,78.025 26.000 C 77.920 25.496,77.715 24.671,77.569 24.167 C 77.424 23.662,77.229 22.988,77.137 22.667 C 77.045 22.346,76.877 21.708,76.764 21.250 C 76.650 20.792,76.509 20.304,76.450 20.167 C 76.391 20.029,76.308 19.711,76.266 19.460 C 76.224 19.208,76.114 18.758,76.022 18.460 C 75.930 18.161,75.761 17.579,75.647 17.167 C 75.532 16.754,75.428 16.379,75.415 16.333 C 75.401 16.287,75.335 15.950,75.267 15.583 C 75.199 15.217,75.078 14.767,74.998 14.583 C 74.919 14.400,74.807 14.081,74.749 13.875 C 74.616 13.399,74.597 13.401,71.500 14.252 M99.506 21.322 C 99.220 21.857,99.277 30.026,99.570 30.426 C 99.796 30.735,100.092 30.752,106.189 30.797 C 110.971 30.833,112.603 30.896,112.700 31.047 C 112.770 31.159,112.829 40.754,112.831 52.369 C 112.833 73.077,112.840 73.492,113.156 73.661 C 113.693 73.948,122.858 73.890,123.260 73.597 C 123.577 73.365,123.584 72.927,123.627 52.097 L 123.670 30.833 129.877 30.831 C 134.544 30.829,136.187 30.776,136.500 30.618 L 136.917 30.407 136.961 26.031 C 136.990 23.203,136.944 21.539,136.830 21.328 C 136.557 20.816,99.779 20.811,99.506 21.322 M149.750 21.116 C 145.422 21.690,142.387 24.674,141.421 29.303 C 141.040 31.129,141.037 66.750,141.418 67.854 C 142.417 70.748,144.609 72.877,147.312 73.578 C 148.813 73.967,176.740 73.963,177.296 73.574 C 177.756 73.252,177.892 64.561,177.443 64.188 C 177.283 64.056,173.598 63.990,164.651 63.959 L 152.083 63.917 152.083 58.083 L 152.083 52.250 163.750 52.167 C 170.167 52.121,175.510 52.023,175.625 51.948 C 175.805 51.832,175.966 42.291,175.792 42.128 C 175.769 42.106,170.425 42.050,163.917 42.003 L 152.083 41.917 152.083 36.417 L 152.083 30.917 164.583 30.833 C 171.458 30.787,177.215 30.686,177.375 30.607 C 177.849 30.375,177.820 21.427,177.344 21.173 C 177.037 21.008,150.966 20.955,149.750 21.116 M196.750 21.114 C 192.335 21.683,187.928 24.512,185.358 28.428 C 184.494 29.744,184.231 30.341,183.783 32.000 C 183.075 34.621,183.083 34.425,183.083 47.667 C 183.083 62.376,182.944 60.937,184.734 64.697 C 185.156 65.585,185.595 66.410,185.709 66.531 C 185.823 66.651,186.131 67.065,186.392 67.450 C 188.607 70.713,192.634 72.964,197.374 73.589 C 199.652 73.889,218.301 73.952,218.844 73.661 C 219.296 73.419,219.352 64.274,218.903 64.101 C 218.758 64.046,214.159 64.000,208.683 64.000 C 199.836 64.000,198.634 63.969,197.905 63.723 C 196.180 63.140,195.230 62.302,194.440 60.667 L 193.917 59.583 193.917 48.417 C 193.917 37.514,193.925 37.222,194.270 36.083 C 195.030 33.577,196.189 32.029,197.904 31.230 L 198.750 30.837 208.433 30.835 C 215.030 30.834,218.284 30.775,218.642 30.650 L 219.167 30.467 219.167 25.934 C 219.167 22.630,219.112 21.346,218.967 21.200 C 218.778 21.011,198.169 20.931,196.750 21.114 M51.835 36.295 C 54.659 39.603,58.671 40.894,63.334 39.996 C 70.943 38.531,77.979 41.195,82.343 47.196 C 83.135 48.285,84.776 51.289,84.642 51.406 C 84.610 51.435,82.146 52.111,79.167 52.908 C 76.188 53.706,71.837 54.872,69.500 55.499 C 67.162 56.127,62.962 57.252,60.167 58.000 C 57.371 58.748,53.725 59.729,52.064 60.180 C 48.364 61.185,48.696 61.203,48.018 59.956 C 45.740 55.767,40.222 53.518,35.250 54.752 C 26.867 56.833,16.932 51.573,14.104 43.558 L 13.862 42.873 15.556 42.424 C 16.488 42.177,18.750 41.571,20.583 41.078 C 25.508 39.755,31.886 38.045,38.000 36.409 C 40.979 35.612,44.876 34.566,46.659 34.085 L 49.902 33.211 50.603 34.442 C 50.989 35.120,51.544 35.953,51.835 36.295 " stroke="none" fill="#cc141c" fill-rule="evenodd"></path><path id="path1" d="M69.250 8.925 C 67.142 9.499,63.129 10.581,60.333 11.329 C 51.113 13.795,47.966 14.637,43.583 15.813 C 41.200 16.452,36.962 17.588,34.167 18.336 C 31.371 19.085,27.471 20.131,25.500 20.662 C 23.529 21.193,21.523 21.726,21.042 21.845 C 20.271 22.037,18.693 23.076,18.535 23.496 C 18.508 23.567,19.521 23.343,20.785 22.999 C 22.049 22.655,24.958 21.873,27.250 21.261 C 29.542 20.649,33.217 19.666,35.417 19.076 C 42.345 17.219,47.270 15.900,51.917 14.656 C 54.392 13.994,58.704 12.838,61.500 12.088 C 64.296 11.337,68.102 10.317,69.958 9.820 C 73.285 8.929,73.332 8.910,73.333 8.468 C 73.334 7.804,73.386 7.798,69.250 8.925 M69.917 10.502 C 67.992 11.034,64.429 12.000,62.000 12.650 C 53.333 14.967,38.491 18.943,27.417 21.914 C 24.850 22.602,21.587 23.473,20.167 23.849 C 17.719 24.496,17.550 24.567,16.955 25.207 C 16.117 26.109,15.918 26.125,20.340 24.932 C 22.491 24.352,26.012 23.407,28.167 22.833 C 30.321 22.258,34.108 21.243,36.583 20.576 C 39.058 19.909,42.771 18.913,44.833 18.363 C 55.899 15.408,62.215 13.716,70.208 11.564 C 73.108 10.784,73.833 10.532,73.833 10.308 C 73.833 9.940,73.659 9.495,73.524 9.518 C 73.465 9.528,71.842 9.971,69.917 10.502 M71.250 13.430 C 69.508 13.904,65.908 14.873,63.250 15.584 C 60.592 16.294,56.804 17.310,54.833 17.840 C 52.862 18.370,49.375 19.304,47.083 19.915 C 39.994 21.806,25.442 25.706,20.667 26.995 C 18.696 27.527,16.541 28.100,15.879 28.267 C 14.725 28.559,14.663 28.600,14.401 29.244 C 13.920 30.428,13.515 31.667,13.609 31.667 C 13.659 31.667,14.386 31.484,15.225 31.261 C 19.758 30.054,26.618 28.218,29.250 27.507 C 30.900 27.062,34.237 26.166,36.667 25.516 C 39.096 24.867,42.733 23.893,44.750 23.351 C 46.767 22.809,49.204 22.160,50.167 21.909 C 51.827 21.475,51.970 21.402,52.953 20.487 C 54.443 19.099,56.118 18.339,59.917 17.329 C 61.658 16.866,65.483 15.841,68.417 15.050 C 71.350 14.260,73.956 13.580,74.208 13.538 C 74.669 13.462,74.740 13.304,74.530 12.826 C 74.432 12.604,73.977 12.688,71.250 13.430 M47.167 24.253 C 45.379 24.738,41.479 25.785,38.500 26.581 C 35.521 27.376,31.583 28.430,29.750 28.922 C 26.717 29.737,22.357 30.905,16.083 32.583 C 12.773 33.469,13.065 33.275,12.928 34.670 C 12.863 35.328,12.849 35.904,12.896 35.951 C 12.981 36.036,14.697 35.598,22.167 33.582 C 24.321 33.001,28.108 31.984,30.583 31.324 C 33.058 30.663,36.958 29.620,39.250 29.005 C 41.542 28.391,44.783 27.522,46.453 27.074 C 49.458 26.268,49.491 26.255,49.600 25.755 C 49.660 25.477,49.888 24.845,50.107 24.349 C 50.605 23.219,50.941 23.230,47.167 24.253 M47.833 28.247 C 47.421 28.369,44.908 29.048,42.250 29.755 C 39.592 30.462,35.804 31.474,33.833 32.006 C 31.863 32.537,27.813 33.622,24.833 34.417 C 21.854 35.213,17.954 36.260,16.167 36.744 L 12.917 37.625 12.931 38.313 C 12.939 38.691,12.980 39.035,13.022 39.077 C 13.063 39.119,14.857 38.678,17.007 38.096 C 19.157 37.515,23.092 36.460,25.750 35.751 C 28.408 35.042,31.783 34.138,33.250 33.742 C 36.299 32.918,47.394 29.949,48.458 29.672 C 49.158 29.489,49.167 29.478,49.167 28.744 C 49.167 27.900,49.091 27.872,47.833 28.247 M48.083 31.080 C 46.195 31.591,34.911 34.618,30.333 35.842 C 27.629 36.565,23.317 37.723,20.750 38.414 C 18.183 39.106,15.427 39.836,14.625 40.037 C 13.268 40.377,13.167 40.431,13.169 40.826 C 13.176 41.874,12.043 42.099,27.000 38.078 C 30.254 37.203,33.442 36.348,34.083 36.178 C 50.260 31.894,49.549 32.118,49.398 31.365 C 49.279 30.771,49.251 30.765,48.083 31.080 M46.167 34.246 C 42.806 35.160,31.350 38.240,27.250 39.332 C 25.967 39.673,22.431 40.618,19.393 41.430 L 13.869 42.907 14.028 43.328 C 17.217 51.832,26.249 56.611,35.492 54.686 C 39.634 53.823,43.143 54.745,46.008 57.447 C 47.046 58.427,48.500 60.400,48.500 60.829 C 48.500 61.081,48.591 61.064,51.540 60.271 C 53.030 59.870,56.275 59.001,58.750 58.339 C 61.225 57.678,64.600 56.772,66.250 56.328 C 73.473 54.380,84.298 51.500,84.395 51.500 C 84.860 51.500,83.527 48.834,82.145 47.000 C 77.866 41.327,70.799 38.574,64.000 39.933 C 58.090 41.115,53.157 39.141,50.663 34.596 C 49.841 33.098,50.265 33.131,46.167 34.246 M84.486 52.735 C 84.448 52.773,82.729 53.251,80.667 53.796 C 78.604 54.342,72.942 55.855,68.083 57.157 C 63.225 58.460,57.000 60.127,54.250 60.861 C 51.500 61.596,49.226 62.220,49.198 62.248 C 49.003 62.438,49.404 63.501,49.644 63.433 C 49.794 63.391,51.942 62.817,54.417 62.157 C 56.892 61.498,60.679 60.486,62.833 59.909 C 64.987 59.332,69.037 58.248,71.833 57.500 C 78.973 55.590,84.139 54.202,84.891 53.990 C 85.437 53.837,85.518 53.756,85.435 53.447 C 85.382 53.247,85.337 52.990,85.336 52.875 C 85.334 52.685,84.650 52.573,84.486 52.735 M81.083 56.323 C 78.792 56.946,74.892 57.997,72.417 58.659 C 69.942 59.320,65.967 60.385,63.583 61.025 C 61.200 61.666,57.487 62.663,55.333 63.241 C 53.179 63.820,51.023 64.391,50.542 64.511 L 49.667 64.730 49.667 65.549 C 49.667 66.203,49.716 66.350,49.912 66.275 C 50.047 66.223,51.191 65.909,52.454 65.578 C 53.717 65.246,56.362 64.540,58.333 64.009 C 60.304 63.477,63.942 62.501,66.417 61.840 C 71.087 60.593,77.357 58.911,82.660 57.482 C 86.232 56.519,85.896 56.697,85.752 55.845 C 85.612 55.015,86.060 54.969,81.083 56.323 M82.833 59.000 C 81.229 59.433,77.892 60.329,75.417 60.991 C 72.942 61.652,69.154 62.666,67.000 63.244 C 57.952 65.670,54.115 66.697,51.847 67.301 L 49.444 67.940 49.171 68.928 C 49.020 69.472,48.802 70.092,48.685 70.306 C 48.376 70.874,48.275 70.888,52.250 69.819 C 56.712 68.619,62.641 67.029,67.667 65.686 C 69.729 65.135,73.217 64.202,75.417 63.613 C 77.617 63.024,80.793 62.177,82.476 61.730 C 85.945 60.808,85.886 60.853,85.799 59.160 L 85.750 58.212 82.833 59.000 M83.417 62.996 C 81.232 63.599,69.158 66.849,65.750 67.751 C 64.283 68.139,60.646 69.114,57.667 69.917 C 54.688 70.719,51.163 71.664,49.833 72.015 L 47.417 72.655 46.159 73.874 C 44.457 75.526,42.952 76.290,39.747 77.133 C 36.830 77.901,24.719 81.141,24.292 81.269 C 24.131 81.317,24.000 81.451,24.000 81.568 C 24.000 81.718,24.847 81.548,26.875 80.991 C 28.456 80.556,31.925 79.622,34.583 78.915 C 37.242 78.207,41.029 77.193,43.000 76.662 C 44.971 76.130,49.021 75.045,52.000 74.250 C 54.979 73.455,58.767 72.441,60.417 71.997 C 62.067 71.554,65.704 70.579,68.500 69.832 C 71.296 69.084,75.346 67.996,77.500 67.412 C 79.654 66.829,82.068 66.189,82.865 65.991 L 84.313 65.631 84.731 64.440 C 85.293 62.839,85.380 62.497,85.220 62.518 C 85.145 62.528,84.333 62.743,83.417 62.996 M78.917 69.162 C 76.992 69.691,72.979 70.776,70.000 71.574 C 67.021 72.372,63.233 73.388,61.583 73.831 C 59.933 74.274,56.596 75.168,54.167 75.817 C 33.034 81.465,24.762 83.692,24.699 83.750 C 24.671 83.776,24.708 84.020,24.782 84.293 L 24.917 84.790 28.750 83.750 C 30.858 83.179,34.758 82.130,37.417 81.420 C 40.075 80.710,43.900 79.687,45.917 79.147 C 47.933 78.606,51.571 77.633,54.000 76.983 C 56.429 76.334,60.179 75.328,62.333 74.748 C 64.487 74.168,68.275 73.153,70.750 72.492 C 83.078 69.200,82.051 69.547,82.677 68.458 C 82.905 68.062,82.958 68.052,78.917 69.162 M78.500 71.102 C 77.354 71.417,74.017 72.317,71.083 73.102 C 68.150 73.887,64.400 74.892,62.750 75.336 C 61.100 75.779,57.462 76.754,54.667 77.501 C 51.871 78.249,47.783 79.342,45.583 79.932 C 43.383 80.521,39.596 81.536,37.167 82.186 C 34.737 82.837,31.116 83.811,29.120 84.351 C 27.123 84.891,25.383 85.333,25.254 85.333 C 25.063 85.333,25.051 85.431,25.192 85.833 C 25.425 86.504,23.805 86.859,38.167 82.994 C 40.137 82.464,43.737 81.499,46.167 80.850 C 48.596 80.201,52.383 79.187,54.583 78.598 C 56.783 78.008,60.871 76.914,63.667 76.166 C 66.462 75.419,70.362 74.371,72.333 73.839 C 74.304 73.306,76.742 72.659,77.750 72.401 C 79.390 71.982,79.662 71.857,80.333 71.220 C 81.227 70.371,81.171 70.368,78.500 71.102 M56.857 79.525 C 56.549 79.613,56.328 79.717,56.366 79.755 C 56.450 79.839,57.667 79.515,57.667 79.409 C 57.667 79.311,57.534 79.330,56.857 79.525 M55.167 80.000 C 54.823 80.110,54.809 80.136,55.083 80.148 C 55.267 80.155,55.529 80.089,55.667 80.000 C 55.959 79.811,55.756 79.811,55.167 80.000 " stroke="none" fill="#fafafa" fill-rule="evenodd"></path><path id="path2" d="M71.545 6.899 C 71.398 6.981,71.009 7.114,70.681 7.195 C 70.352 7.276,69.933 7.384,69.750 7.435 C 69.567 7.485,69.267 7.553,69.083 7.585 C 68.900 7.618,68.144 7.824,67.404 8.044 C 66.663 8.265,65.932 8.426,65.779 8.404 C 65.625 8.381,65.500 8.423,65.500 8.496 C 65.500 8.570,65.219 8.687,64.875 8.758 C 64.531 8.829,64.175 8.909,64.083 8.937 C 63.992 8.964,63.617 9.067,63.250 9.165 C 62.883 9.263,62.471 9.376,62.333 9.417 C 61.378 9.698,58.951 10.343,58.583 10.413 C 58.400 10.447,57.913 10.578,57.500 10.702 C 57.087 10.827,56.637 10.924,56.500 10.917 C 56.362 10.911,56.212 10.959,56.165 11.024 C 56.118 11.089,55.855 11.166,55.581 11.196 C 55.307 11.226,55.043 11.304,54.994 11.369 C 54.945 11.434,54.633 11.522,54.302 11.563 C 53.970 11.604,53.550 11.717,53.368 11.815 C 53.185 11.912,52.773 12.025,52.451 12.065 C 52.129 12.105,51.727 12.207,51.558 12.292 C 51.221 12.460,49.400 12.894,49.000 12.901 C 48.862 12.904,48.710 12.962,48.660 13.031 C 48.611 13.100,48.329 13.174,48.035 13.197 C 47.741 13.219,47.500 13.305,47.500 13.388 C 47.500 13.471,47.350 13.500,47.167 13.452 C 46.983 13.404,46.833 13.424,46.833 13.497 C 46.833 13.569,46.627 13.668,46.375 13.716 C 46.123 13.764,45.504 13.914,45.000 14.049 C 41.438 15.006,40.761 15.176,40.403 15.206 C 40.181 15.224,40.000 15.290,40.000 15.351 C 40.000 15.413,39.719 15.522,39.375 15.594 C 39.031 15.665,38.712 15.735,38.667 15.749 C 38.139 15.904,37.030 16.215,36.834 16.263 C 36.548 16.332,35.413 16.631,34.917 16.768 C 34.733 16.818,34.433 16.889,34.250 16.925 C 34.067 16.961,33.392 17.144,32.750 17.331 C 32.108 17.519,31.433 17.707,31.250 17.749 C 31.067 17.791,30.204 18.023,29.333 18.265 C 28.462 18.507,27.337 18.818,26.833 18.957 C 26.329 19.095,25.718 19.218,25.474 19.229 C 25.231 19.241,25.067 19.306,25.109 19.375 C 25.152 19.444,25.102 19.500,24.999 19.500 C 24.468 19.500,20.536 21.592,20.720 21.776 C 20.757 21.812,21.753 21.583,22.935 21.266 C 24.117 20.949,27.033 20.166,29.417 19.526 C 31.800 18.885,35.775 17.821,38.250 17.161 C 40.725 16.500,44.362 15.527,46.333 14.998 C 48.304 14.469,52.092 13.454,54.750 12.743 C 57.408 12.031,61.458 10.945,63.750 10.329 C 66.042 9.712,68.981 8.924,70.282 8.578 C 73.118 7.823,73.067 7.850,72.923 7.195 C 72.805 6.657,72.211 6.529,71.545 6.899 M72.333 9.254 C 71.921 9.374,69.333 10.075,66.583 10.810 C 58.615 12.940,53.584 14.288,48.667 15.608 C 46.146 16.284,42.265 17.324,40.042 17.919 C 37.819 18.514,34.181 19.487,31.958 20.083 C 23.927 22.235,20.562 23.131,19.417 23.421 C 18.290 23.707,17.227 24.333,17.869 24.333 C 18.021 24.333,19.932 23.851,22.115 23.261 C 24.297 22.672,28.033 21.667,30.417 21.028 C 32.800 20.390,36.737 19.335,39.167 18.684 C 41.596 18.033,45.271 17.050,47.333 16.499 C 49.396 15.948,53.146 14.943,55.667 14.267 C 58.188 13.591,62.275 12.496,64.750 11.834 C 74.377 9.261,73.619 9.494,73.424 9.178 C 73.295 8.970,73.307 8.969,72.333 9.254 M72.250 11.110 C 71.425 11.324,68.912 11.993,66.667 12.596 C 59.841 14.430,54.971 15.735,50.250 16.996 C 47.775 17.657,43.987 18.672,41.833 19.252 C 39.679 19.832,35.892 20.847,33.417 21.508 C 30.942 22.169,27.454 23.105,25.667 23.587 C 23.879 24.070,21.067 24.820,19.417 25.253 C 16.006 26.149,16.197 26.049,15.398 27.364 C 14.648 28.598,14.545 28.560,16.917 27.915 C 18.017 27.616,21.092 26.791,23.750 26.082 C 33.869 23.383,35.944 22.828,36.833 22.583 C 37.873 22.296,42.958 20.931,49.583 19.162 C 52.058 18.501,55.696 17.526,57.667 16.997 C 59.637 16.467,63.425 15.453,66.083 14.744 C 75.155 12.322,74.249 12.614,74.258 12.111 C 74.262 11.867,74.201 11.667,74.123 11.667 C 74.044 11.667,74.016 11.609,74.059 11.540 C 74.102 11.470,74.050 11.257,73.944 11.067 L 73.750 10.721 72.250 11.110 M233.667 21.113 C 229.316 21.819,226.851 23.719,225.376 27.500 C 224.927 28.650,224.833 73.299,225.278 73.625 C 225.781 73.992,235.028 73.917,235.483 73.542 C 235.835 73.251,235.836 73.221,235.876 62.750 L 235.917 52.250 247.617 52.167 C 256.898 52.101,259.362 52.039,259.533 51.867 C 259.811 51.590,259.941 43.637,259.679 42.948 L 259.508 42.500 247.953 42.500 C 238.824 42.500,236.336 42.455,236.105 42.287 C 235.573 41.897,235.770 33.175,236.333 32.183 C 237.146 30.754,236.361 30.834,249.581 30.831 C 258.652 30.829,261.343 30.782,261.667 30.618 L 262.083 30.407 262.128 25.932 C 262.159 22.770,262.116 21.390,261.982 21.229 C 261.802 21.012,234.966 20.902,233.667 21.113 M265.754 21.270 C 265.324 21.700,265.456 63.146,265.893 65.000 C 267.152 70.339,269.721 72.638,275.417 73.523 C 277.638 73.868,298.923 73.922,299.439 73.584 L 299.833 73.326 299.833 68.863 C 299.833 65.614,299.779 64.346,299.633 64.200 C 299.482 64.049,296.849 64.000,288.806 64.000 C 277.182 64.000,277.498 64.025,276.750 63.028 C 276.421 62.590,276.416 62.289,276.372 42.014 C 276.341 27.280,276.276 21.382,276.144 21.222 C 275.841 20.857,266.122 20.901,265.754 21.270 M311.667 21.110 C 307.666 21.728,304.838 24.226,303.560 28.268 C 303.265 29.202,303.250 30.191,303.250 48.583 L 303.250 67.917 303.795 68.961 C 304.334 69.993,304.467 70.185,305.389 71.271 C 306.168 72.186,307.994 73.297,309.183 73.577 C 310.500 73.887,338.608 73.966,339.178 73.661 C 339.629 73.419,339.686 64.274,339.236 64.101 C 339.091 64.046,333.390 64.000,326.566 64.000 L 314.158 64.000 313.996 63.572 C 313.903 63.329,313.833 60.969,313.833 58.083 C 313.833 55.198,313.903 52.838,313.996 52.594 L 314.158 52.167 325.568 52.167 C 332.579 52.167,337.143 52.104,337.406 52.004 L 337.833 51.842 337.833 47.121 C 337.833 43.671,337.779 42.346,337.633 42.200 C 337.482 42.048,334.625 42.000,325.796 42.000 L 314.158 42.000 313.996 41.572 C 313.818 41.105,313.767 32.205,313.938 31.354 L 314.042 30.833 326.343 30.833 C 333.933 30.833,338.809 30.771,339.072 30.671 L 339.500 30.508 339.500 25.855 C 339.500 21.766,339.468 21.190,339.236 21.101 C 338.955 20.993,312.368 21.001,311.667 21.110 M345.200 21.200 C 344.788 21.612,344.929 21.924,349.459 30.667 C 350.148 31.996,351.668 34.958,352.836 37.250 C 355.054 41.602,356.570 44.533,357.508 46.286 L 358.063 47.323 357.310 48.786 C 353.400 56.388,351.505 60.088,347.062 68.789 C 344.244 74.309,343.941 73.869,350.513 73.799 C 355.919 73.742,355.401 73.934,356.628 71.528 C 357.079 70.642,357.770 69.317,358.163 68.583 C 359.157 66.728,360.740 63.706,362.279 60.724 C 362.996 59.334,363.658 58.182,363.750 58.163 C 363.842 58.144,364.296 58.868,364.761 59.773 C 365.225 60.677,366.115 62.392,366.738 63.583 C 367.362 64.775,368.460 66.875,369.179 68.250 C 372.456 74.522,371.458 73.828,377.197 73.831 C 383.260 73.834,383.149 73.912,381.522 70.792 C 380.597 69.019,378.810 65.537,374.914 57.917 C 373.977 56.083,372.513 53.233,371.661 51.583 C 370.808 49.933,369.975 48.308,369.808 47.971 L 369.504 47.358 370.563 45.304 C 372.756 41.051,374.685 37.296,376.583 33.583 C 377.661 31.475,379.433 28.012,380.522 25.889 C 382.475 22.077,382.753 21.299,382.236 21.101 C 382.091 21.046,379.815 21.000,377.179 21.000 C 371.681 21.000,372.119 20.878,371.184 22.667 C 370.604 23.777,369.737 25.438,367.748 29.250 C 367.127 30.442,365.997 32.617,365.237 34.083 C 364.478 35.550,363.810 36.733,363.752 36.713 C 363.695 36.693,363.253 35.905,362.770 34.963 C 362.286 34.021,361.399 32.313,360.798 31.167 C 360.197 30.021,359.312 28.333,358.831 27.417 C 358.350 26.500,357.487 24.853,356.914 23.757 C 355.311 20.692,356.052 21.000,350.296 21.000 C 346.710 21.000,345.346 21.054,345.200 21.200 M48.750 22.348 C 47.100 22.799,43.762 23.700,41.333 24.350 C 38.904 24.999,35.154 26.005,33.000 26.585 C 30.846 27.165,27.058 28.180,24.583 28.839 C 19.296 30.249,15.594 31.248,14.381 31.592 C 13.572 31.822,13.499 31.887,13.328 32.520 C 13.090 33.403,12.709 33.433,17.167 32.226 C 19.321 31.642,22.771 30.715,24.833 30.164 C 26.896 29.613,28.846 29.089,29.167 29.000 C 29.739 28.841,33.286 27.891,42.250 25.495 C 44.725 24.833,47.625 24.056,48.694 23.768 L 50.639 23.245 51.239 22.372 C 51.569 21.893,51.819 21.506,51.794 21.514 C 51.770 21.522,50.400 21.897,48.750 22.348 M48.833 26.522 C 48.263 26.676,43.097 28.059,35.750 30.023 C 32.365 30.928,30.310 31.479,18.333 34.690 C 15.996 35.317,13.802 35.908,13.458 36.005 C 12.895 36.163,12.424 37.500,12.932 37.500 C 13.051 37.500,15.795 36.776,20.167 35.592 C 21.954 35.108,25.592 34.130,28.250 33.419 C 30.908 32.707,34.696 31.693,36.667 31.164 C 38.637 30.635,42.125 29.701,44.417 29.089 C 46.708 28.477,48.702 27.943,48.847 27.902 C 49.000 27.860,49.184 27.513,49.283 27.081 C 49.377 26.670,49.445 26.340,49.435 26.348 C 49.425 26.357,49.154 26.435,48.833 26.522 M81.500 57.861 C 79.162 58.492,75.262 59.540,72.833 60.190 C 70.404 60.841,66.654 61.846,64.500 62.424 C 62.346 63.002,58.146 64.128,55.167 64.925 C 52.188 65.723,49.725 66.397,49.694 66.424 C 49.584 66.520,49.458 67.833,49.559 67.833 C 49.616 67.833,50.882 67.502,52.373 67.097 C 53.863 66.692,56.396 66.011,58.000 65.582 C 59.604 65.154,63.429 64.130,66.500 63.308 C 72.922 61.588,72.608 61.672,80.080 59.672 C 86.334 57.999,85.966 58.149,85.841 57.316 L 85.750 56.715 81.500 57.861 M81.000 62.179 C 77.022 63.259,74.873 63.837,64.625 66.583 C 62.402 67.178,58.933 68.109,56.917 68.650 C 54.900 69.191,52.173 69.917,50.857 70.263 L 48.464 70.892 47.992 71.650 C 47.379 72.636,47.281 72.623,49.944 71.907 C 51.212 71.567,54.275 70.745,56.750 70.080 C 59.225 69.416,63.275 68.332,65.750 67.671 C 68.225 67.010,71.862 66.035,73.833 65.505 C 75.804 64.974,79.200 64.062,81.379 63.479 L 85.340 62.417 85.503 61.834 C 85.794 60.786,86.262 60.750,81.000 62.179 M81.500 66.419 C 80.079 66.807,76.742 67.706,74.083 68.416 C 71.425 69.126,67.637 70.142,65.667 70.673 C 63.696 71.203,59.646 72.288,56.667 73.083 C 53.688 73.878,49.637 74.963,47.667 75.494 C 45.696 76.025,42.321 76.928,40.167 77.502 C 38.012 78.076,34.225 79.090,31.750 79.756 C 29.275 80.422,26.594 81.136,25.792 81.342 C 24.187 81.755,24.162 81.788,24.531 82.973 L 24.729 83.608 26.573 83.129 C 27.587 82.865,30.029 82.213,32.000 81.679 C 33.971 81.145,37.346 80.238,39.500 79.665 C 41.654 79.091,45.442 78.077,47.917 77.412 C 50.392 76.747,54.442 75.661,56.917 74.999 C 62.673 73.458,67.397 72.193,73.250 70.625 C 75.817 69.937,78.967 69.094,80.250 68.752 C 83.140 67.980,82.999 68.060,83.655 66.831 C 84.335 65.553,84.532 65.591,81.500 66.419 M76.750 70.937 C 72.497 72.102,70.064 72.758,58.917 75.748 C 56.350 76.436,52.600 77.441,50.583 77.982 C 48.567 78.523,44.892 79.505,42.417 80.165 C 39.942 80.824,36.154 81.840,34.000 82.421 C 31.846 83.002,29.033 83.751,27.750 84.086 C 25.790 84.596,24.806 85.028,25.050 85.272 C 25.105 85.327,27.499 84.713,33.000 83.231 C 38.605 81.721,43.375 80.442,49.083 78.916 C 51.742 78.205,55.529 77.191,57.500 76.661 C 59.471 76.131,63.108 75.156,65.583 74.494 C 68.058 73.833,72.108 72.748,74.583 72.083 C 77.058 71.419,79.593 70.741,80.217 70.577 C 80.925 70.391,81.412 70.164,81.514 69.973 C 81.736 69.559,81.915 69.523,76.750 70.937 M76.333 72.829 C 73.477 73.613,68.672 74.908,60.500 77.093 C 58.254 77.693,54.467 78.707,52.083 79.346 C 49.700 79.985,45.800 81.030,43.417 81.669 C 41.033 82.308,37.358 83.291,35.250 83.853 C 33.142 84.416,30.104 85.231,28.500 85.665 L 25.583 86.454 25.583 86.936 C 25.583 87.800,25.737 87.814,28.156 87.157 C 31.229 86.322,39.101 84.209,43.667 82.994 C 45.729 82.445,47.679 81.923,48.000 81.833 C 48.321 81.744,50.271 81.221,52.333 80.671 C 57.001 79.426,64.508 77.411,68.250 76.398 C 69.808 75.977,71.627 75.490,72.292 75.316 C 72.956 75.142,74.079 74.849,74.786 74.664 C 76.214 74.291,80.258 71.941,79.333 72.021 C 79.287 72.025,77.938 72.388,76.333 72.829 " stroke="none" fill="#434343" fill-rule="evenodd"></path><path id="path3" d="M54.167 11.508 C 53.984 11.631,54.052 11.647,54.417 11.565 C 55.029 11.428,55.163 11.332,54.736 11.336 C 54.560 11.337,54.304 11.415,54.167 11.508 M52.333 12.008 C 52.151 12.131,52.218 12.147,52.583 12.065 C 53.196 11.928,53.329 11.832,52.903 11.836 C 52.727 11.837,52.471 11.915,52.333 12.008 M45.333 13.833 C 44.990 13.943,44.975 13.969,45.250 13.981 C 45.433 13.989,45.696 13.922,45.833 13.833 C 46.125 13.645,45.923 13.645,45.333 13.833 M28.667 18.341 C 28.484 18.464,28.552 18.480,28.917 18.398 C 29.529 18.261,29.663 18.166,29.236 18.169 C 29.060 18.171,28.804 18.248,28.667 18.341 M27.190 18.691 C 26.882 18.780,26.661 18.884,26.699 18.922 C 26.784 19.006,28.000 18.682,28.000 18.575 C 28.000 18.477,27.868 18.496,27.190 18.691 M25.583 19.119 C 25.400 19.163,25.180 19.265,25.095 19.347 C 25.009 19.428,25.188 19.423,25.492 19.336 C 26.351 19.089,26.424 18.917,25.583 19.119 " stroke="none" fill="#8b8888" fill-rule="evenodd"></path><path id="path4" d="" stroke="none" fill="#989a9d" fill-rule="evenodd"></path></g></svg>